<svg xmlns="http://www.w3.org/2000/svg" viewBox="0 0 32 32" fill="none">
  <!-- Background -->
  <rect width="32" height="32" rx="6" fill="#0d1117"/>
  
  <!-- Shield outline (Security) - Larger -->
  <path d="M16 3 L26 6 L26 14 C26 20 21 25 16 28 C11 25 6 20 6 14 L6 6 Z" 
        stroke="#58a6ff" stroke-width="1.5" fill="none" opacity="0.85"/>
  
  <!-- Database cylinder (Database) - Larger and more prominent -->
  <ellipse cx="16" cy="11" rx="6.5" ry="2.5" fill="#238636" opacity="0.95"/>
  <path d="M9.5 11 L9.5 14.5 C9.5 15.9 12.3 17 16 17 C19.7 17 22.5 15.9 22.5 14.5 L22.5 11" 
        fill="#238636" opacity="0.9"/>
  <ellipse cx="16" cy="14.5" rx="6.5" ry="2.5" fill="#2ea043"/>
  
  <!-- AI Neural nodes (AI) - Larger nodes -->
  <circle cx="12" cy="20" r="1.8" fill="#f778ba"/>
  <circle cx="16" cy="22.5" r="1.8" fill="#f778ba"/>
  <circle cx="20" cy="20" r="1.8" fill="#f778ba"/>
  
  <!-- Neural connections - Thicker lines -->
  <line x1="12" y1="20" x2="16" y2="22.5" stroke="#f778ba" stroke-width="1.2" opacity="0.6"/>
  <line x1="20" y1="20" x2="16" y2="22.5" stroke="#f778ba" stroke-width="1.2" opacity="0.6"/>
  <line x1="12" y1="20" x2="20" y2="20" stroke="#f778ba" stroke-width="1.2" opacity="0.6"/>
  
  <!-- Lock symbol (Security accent) - Larger -->
  <rect x="13.5" y="17.5" width="5" height="4.5" rx="0.8" fill="#58a6ff" opacity="0.8"/>
  <path d="M14.5 17.5 L14.5 16 C14.5 15.2 15.2 14.5 16 14.5 C16.8 14.5 17.5 15.2 17.5 16 L17.5 17.5" 
        stroke="#58a6ff" stroke-width="1.2" fill="none" opacity="0.8"/>
  <circle cx="16" cy="19.5" r="1" fill="#0d1117"/>
</svg>
