<?xml version="1.0" encoding="UTF-8"?>
<svg id="_图层_1" data-name="图层 1" xmlns="http://www.w3.org/2000/svg" xmlns:xlink="http://www.w3.org/1999/xlink" viewBox="0 0 300 300">
  <defs>
    <style>
      .cls-1 {
        fill: #21197e;
      }

      .cls-2 {
        fill: url(#_未命名的渐变_27);
      }

      .cls-3 {
        fill: url(#_未命名的渐变_40);
        opacity: .5;
      }

      .cls-4 {
        fill: url(#_未命名的渐变_4280);
      }

      .cls-5 {
        fill: url(#_未命名的渐变_4231);
      }

      .cls-6 {
        fill: url(#_未命名的渐变_4248);
      }
    </style>
    <radialGradient id="_未命名的渐变_4248" data-name="未命名的渐变 4248" cx="90.86" cy="74.12" fx="90.86" fy="74.12" r="259.39" gradientUnits="userSpaceOnUse">
      <stop offset=".26" stop-color="#00d3e6"/>
      <stop offset=".79" stop-color="#007bfa"/>
    </radialGradient>
    <linearGradient id="_未命名的渐变_40" data-name="未命名的渐变 40" x1="155.42" y1="299.26" x2="270.51" y2="161.25" gradientUnits="userSpaceOnUse">
      <stop offset="0" stop-color="#fff" stop-opacity=".8"/>
      <stop offset=".79" stop-color="#fff" stop-opacity="0"/>
    </linearGradient>
    <linearGradient id="_未命名的渐变_4231" data-name="未命名的渐变 4231" x1="150" y1="327.77" x2="150" y2="71.18" gradientUnits="userSpaceOnUse">
      <stop offset="0" stop-color="#0d30dd"/>
      <stop offset="1" stop-color="#121854"/>
    </linearGradient>
    <linearGradient id="_未命名的渐变_27" data-name="未命名的渐变 27" x1="84.35" y1="27.33" x2="191.36" y2="212.68" gradientUnits="userSpaceOnUse">
      <stop offset=".46" stop-color="#12ffff"/>
      <stop offset="1" stop-color="#1facff"/>
    </linearGradient>
    <linearGradient id="_未命名的渐变_4280" data-name="未命名的渐变 4280" x1="44.22" y1="139.47" x2="263.34" y2="139.47" gradientUnits="userSpaceOnUse">
      <stop offset="0" stop-color="#20e2fd"/>
      <stop offset=".18" stop-color="#20fcff"/>
      <stop offset=".51" stop-color="#1df8ff"/>
      <stop offset=".81" stop-color="#17edff"/>
      <stop offset="1" stop-color="#11e2ff"/>
    </linearGradient>
  </defs>
  <path class="cls-6" d="M148.55,299.2C69.02,255.37,28.7,207.36,28.7,156.5V44.52l9.46-2.26C71.52,34.24,101.64,24.49,148.64,.69l1.36-.69,1.36,.69c47,23.8,77.12,33.55,110.48,41.57l9.45,2.26v111.98c0,50.86-40.32,98.87-119.84,142.69l-1.46,.8-1.46-.8ZM53.37,156.5c0,39.09,32.51,77.83,96.64,115.17,64.12-37.34,96.63-76.08,96.63-115.17V63.9c-33.35-8.55-61.62-19.18-96.63-36.33-35.01,17.15-63.29,27.78-96.64,36.33v92.61Z"/>
  <path class="cls-3" d="M246.63,156.6c-.05,39.07-32.56,77.77-96.63,115.08v28.32l1.46-.8c79.46-43.79,119.78-91.77,119.84-142.6h-24.67Z"/>
  <path class="cls-5" d="M251.88,156.59c0,41.5-34.26,82.27-101.88,121.32-67.62-39.05-101.89-79.83-101.89-121.32V59.51c30.71-7.73,60.25-17.69,101.89-38.18,41.64,20.49,71.18,30.45,101.88,38.18v97.09Z"/>
  <path class="cls-2" d="M150,82.07c-23.67,0-48.82,7.03-48.82,20.06v77.81c0,13.03,25.15,20.06,48.82,20.06s48.82-7.03,48.82-20.06V102.13c0-13.03-25.15-20.06-48.82-20.06Zm0,6.87c25.61,0,41.95,7.81,41.95,13.19s-16.34,13.19-41.95,13.19-41.95-7.81-41.95-13.19,16.34-13.19,41.95-13.19Zm0,104.19c-25.61,0-41.95-7.81-41.95-13.19v-15.31c9.09,6.17,25.86,9.43,41.95,9.43s32.86-3.25,41.95-9.43v15.31c0,5.38-16.34,13.19-41.95,13.19Zm0-25.94c-25.61,0-41.95-7.81-41.95-13.19v-41.23c9.09,6.17,25.86,9.43,41.95,9.43s32.86-3.25,41.95-9.43v41.23c0,5.38-16.34,13.19-41.95,13.19Z"/>
  <g>
    <path class="cls-4" d="M165.69,168.79c-.17,0-.34,0-.51-.03-1.78-.19-3.31-1.41-3.91-3.09l-11.62-37.75-10.41,24.29c-.71,1.64-2.25,2.73-4.04,2.84-.09,0-.18,0-.27,0-1.68,0-3.24-.9-4.07-2.35l-7.3-12.65-1.89,3.23c-.84,1.43-2.39,2.32-4.05,2.32h-18.46l-8.52,19.39c-.75,1.7-2.43,2.8-4.29,2.8-.12,0-.24,0-.37-.01-1.99-.16-3.67-1.56-4.17-3.49l-9.17-35.04-7.56,17.57c-.74,1.72-2.43,2.84-4.31,2.84h-11.83c-2.59,0-4.69-2.11-4.69-4.69s2.11-4.69,4.69-4.69h8.74l11.73-27.28c.74-1.72,2.43-2.84,4.31-2.84,.12,0,.24,0,.36,.01,2,.15,3.68,1.55,4.19,3.49l9.22,35.21,4.33-9.85c.75-1.7,2.44-2.8,4.3-2.8h18.83l4.61-7.87c.84-1.43,2.39-2.32,4.05-2.32,1.68,0,3.23,.91,4.07,2.35l6.65,11.53,11.53-26.9c.75-1.75,2.44-2.84,4.39-2.84,2.01,.06,3.69,1.29,4.34,3.12l12.22,39.47,9.45-19.92,.04-.07c.86-1.38,2.35-2.2,3.97-2.21,1.63,0,3.12,.82,3.98,2.19l5.59,8.86h27.22l10.51-12.59c.89-1.07,2.21-1.68,3.6-1.68,1.45,.01,2.77,.65,3.65,1.74l10.12,12.53h13.72c2.59,0,4.69,2.11,4.69,4.69s-2.11,4.69-4.69,4.69h-15.96c-1.43,0-2.76-.64-3.65-1.75l-7.94-9.83-8.26,9.89c-.89,1.07-2.2,1.68-3.6,1.68h-32.01c-1.62,0-3.1-.82-3.97-2.19l-2.83-4.48-10.72,22.21-.04,.06c-.85,1.36-2.37,2.21-3.98,2.21Z"/>
    <path class="cls-1" d="M73.7,111.51c.08,0,.17,0,.25,0,1.42,.11,2.61,1.1,2.97,2.48l10.21,39,5.91-13.44c.53-1.21,1.73-1.99,3.05-1.99h19.62l5.01-8.55c.6-1.02,1.69-1.65,2.87-1.65h.01c1.19,0,2.28,.64,2.87,1.67l8.01,13.89,12.6-29.4c.54-1.25,1.75-2.02,3.14-2.02,0,0,.02,0,.03,0,1.37,.04,2.57,.92,3.03,2.21l13.23,42.76,10.92-23.01c.61-.97,1.67-1.56,2.82-1.57h0c1.14,0,2.21,.59,2.82,1.55l5.99,9.5h28.61l10.92-13.08c.63-.76,1.57-1.2,2.55-1.2h.03c1,0,1.94,.46,2.56,1.24l10.53,13.04h14.37c1.84,0,3.33,1.49,3.33,3.33s-1.49,3.33-3.33,3.33h-15.96c-1.01,0-1.96-.45-2.59-1.24l-8.99-11.12-9.32,11.16c-.63,.76-1.57,1.2-2.55,1.2h-32.01c-1.14,0-2.21-.59-2.82-1.55l-4.14-6.56-11.76,24.35c-.61,.98-1.69,1.57-2.82,1.57-.12,0-.24,0-.36-.02-1.27-.14-2.35-.99-2.78-2.19l-12.7-41.24-11.87,27.7c-.5,1.16-1.61,1.94-2.86,2.01-.06,0-.13,0-.19,0-1.19,0-2.3-.63-2.89-1.67l-8.47-14.69-3.08,5.25c-.6,1.02-1.69,1.65-2.87,1.65h-19.35l-8.88,20.2c-.53,1.22-1.74,1.99-3.05,1.99-.09,0-.18,0-.26-.01-1.41-.11-2.6-1.11-2.96-2.48l-10.18-38.88-9.12,21.22c-.53,1.22-1.73,2.01-3.06,2.01h-11.83c-1.84,0-3.33-1.49-3.33-3.33s1.49-3.33,3.33-3.33h9.64l12.09-28.1c.53-1.23,1.74-2.01,3.06-2.01m0-2.73c-2.42,0-4.61,1.44-5.56,3.66l-11.38,26.45h-7.85c-3.34,0-6.06,2.72-6.06,6.06s2.72,6.06,6.06,6.06h11.83c2.42,0,4.61-1.44,5.56-3.66l5.99-13.93,8.17,31.2c.65,2.49,2.81,4.3,5.38,4.5,.17,.01,.33,.02,.48,.02,2.4,0,4.58-1.42,5.54-3.62l8.16-18.57h17.57c2.14,0,4.14-1.15,5.23-2.99l.71-1.21,6.13,10.62c1.08,1.87,3.09,3.03,5.25,3.03,.11,0,.23,0,.34,0,2.31-.14,4.31-1.54,5.22-3.66l8.94-20.87,10.51,34.14,.02,.06,.02,.06c.77,2.17,2.76,3.74,5.05,3.99,.22,.02,.44,.04,.66,.04,2.07,0,4.04-1.09,5.14-2.85l.08-.13,.06-.13,9.62-19.92,1.51,2.4c1.12,1.77,3.03,2.83,5.12,2.83h32.01c1.8,0,3.5-.79,4.65-2.18l7.19-8.61,6.9,8.54c1.15,1.43,2.87,2.25,4.71,2.25h15.96c3.34,0,6.06-2.72,6.06-6.06s-2.72-6.06-6.06-6.06h-13.07l-9.71-12.02c-1.14-1.41-2.84-2.24-4.66-2.25-1.85,0-3.55,.79-4.7,2.18l-10.1,12.1h-25.83l-5.18-8.22c-1.12-1.77-3.03-2.83-5.12-2.83-2.11,0-4.03,1.07-5.14,2.85l-.08,.13-.07,.14-7.92,16.69-11.17-36.08-.02-.05-.02-.05c-.84-2.37-3.01-3.94-5.52-4.02h-.04s-.07,0-.07,0c-2.47,0-4.69,1.44-5.65,3.67l-10.45,24.39-5.29-9.17c-1.07-1.86-3.08-3.02-5.23-3.03-2.16,0-4.16,1.15-5.25,2.99l-4.22,7.2h-18.05c-2.4,0-4.58,1.42-5.54,3.62l-2.75,6.27-8.23-31.42c-.65-2.5-2.83-4.31-5.4-4.51-.15-.01-.3-.02-.46-.02h0Z"/>
  </g>
</svg>