<?xml version="1.0" encoding="UTF-8"?>
<svg id="_图层_1" data-name="图层 1" xmlns="http://www.w3.org/2000/svg" xmlns:xlink="http://www.w3.org/1999/xlink" viewBox="0 0 300 300">
  <defs>
    <style>
      .cls-1 {
        fill: #fff;
      }

      .cls-2 {
        fill: #615fee;
      }

      .cls-3 {
        fill: url(#_未命名的渐变_41);
      }

      .cls-4 {
        fill: url(#_未命名的渐变_4282);
      }
    </style>
    <radialGradient id="_未命名的渐变_4282" data-name="未命名的渐变 4282" cx="257.75" cy="24.3" fx="257.75" fy="24.3" r="340.27" gradientUnits="userSpaceOnUse">
      <stop offset=".06" stop-color="#a648fe"/>
      <stop offset=".8" stop-color="#2b90fa"/>
    </radialGradient>
    <linearGradient id="_未命名的渐变_41" data-name="未命名的渐变 41" x1="89.63" y1="141.32" x2="216.01" y2="148.67" gradientUnits="userSpaceOnUse">
      <stop offset="0" stop-color="#489bfb"/>
      <stop offset=".18" stop-color="#4a94f9"/>
      <stop offset=".42" stop-color="#5283f5"/>
      <stop offset=".71" stop-color="#5e65ef"/>
      <stop offset="1" stop-color="#6e40e8"/>
    </linearGradient>
  </defs>
  <path class="cls-4" d="M251.26,165.67l-.08,.37c-5.25,38.25-39.49,75.8-102,111.91-63.29-36.55-97.6-74.59-102.18-113.33H27.69c4.51,47.9,45.33,93.41,121.49,135.38,75.6-41.66,116.37-86.81,121.38-134.33h-19.3Zm12.46-122.58C229.29,34.81,197.61,24.52,149.17,0,100.74,24.52,69.06,34.81,34.63,43.09l-7.36,1.76v98.18h12.08l1.6-4.35c1-2.7,3.03-4.83,5.52-6.01V59.95c30.95-7.8,60.74-17.84,102.71-38.5,41.97,20.66,71.75,30.7,102.71,38.5v72.03c1.84,1.17,3.31,2.92,4.17,5.06l2.85,7.06h12.18V44.85l-7.36-1.76Z"/>
  <path class="cls-3" d="M158.01,145.12v.1s.04-.1,.04-.1h-.04Zm0,0v.1s.04-.1,.04-.1h-.04Zm0,0v.1s.04-.1,.04-.1h-.04Zm-8.62-76.42c-30.52,0-62.95,8.97-62.95,25.57v49.51h29.84l.8-2.03c-14.35-3.61-22.46-9.26-22.46-13.8v-20.56c.08,.05,.18,.12,.27,.18,.64,.45,1.31,.87,2.02,1.3,.79,.48,1.64,.95,2.52,1.39,.41,.22,.82,.42,1.25,.63,.93,.45,1.9,.9,2.9,1.3,.74,.31,1.49,.6,2.25,.89,.78,.27,1.55,.56,2.35,.83,.53,.18,1.08,.35,1.62,.52,.55,.16,1.09,.34,1.65,.5,1.05,.31,2.11,.6,3.2,.87,.14,.05,.27,.1,.41,.12,.52,.11,1.04,.23,1.55,.35,.59,.15,1.19,.3,1.79,.41,.41,.1,.82,.19,1.24,.26,2.62,.56,5.32,1.02,8.07,1.4,.98,.15,1.98,.29,2.99,.4,.5,.07,1.02,.12,1.53,.19l2.05,.2,1.5-8.05c-25.81-2.22-41.17-10.57-41.17-16.81,0-7.25,20.84-17.39,54.76-17.39s54.76,10.13,54.76,17.39c0,6.71-17.66,15.82-46.94,17.21l1.06,8.13c.16-.01,.31-.03,.48-.04,.7-.03,1.4-.08,2.1-.14,.8-.05,1.61-.11,2.41-.18,1.09-.11,2.18-.22,3.26-.33,.53-.07,1.08-.14,1.61-.2,.9-.08,1.79-.22,2.67-.35,3.91-.53,7.73-1.24,11.35-2.1,.44-.08,.89-.2,1.32-.31,.3-.05,.6-.15,.89-.23,.42-.11,.85-.2,1.27-.34,1.15-.3,2.25-.63,3.34-.97s2.15-.7,3.19-1.08c1.04-.37,2.03-.76,3.01-1.16,1.01-.4,1.99-.85,2.92-1.31,.35-.16,.7-.33,1.04-.5,.95-.48,1.87-.97,2.73-1.5,.71-.42,1.38-.85,2.02-1.3,.1-.05,.19-.12,.27-.18v20.56c0,4.81-9.12,10.87-25.12,14.41l.48,1.12h30.78l2.05-9.49v-39.72c0-16.6-32.43-25.57-62.95-25.57Zm53.36,96.37c-3.87,4.98-15.65,10.3-33.37,12.68l-1.83,8.4c14.78-1.75,28.36-5.6,36.6-11.41v20.59c0,7.24-20.84,17.39-54.76,17.39s-54.76-10.15-54.76-17.39v-20.59c10.81,7.64,30.86,11.9,50.73,12.41l-1.08-8.21c-25.57-.78-42.82-7.39-48-13.57h-6.65l-3.18,12.27v17.69c0,16.6,32.43,25.57,62.95,25.57s62.95-8.97,62.95-25.57v-30.26h-9.59Zm-44.74-19.95v.1s.04-.1,.04-.1h-.04Zm0,0v.1s.04-.1,.04-.1h-.04Zm0,0v.1s.04-.1,.04-.1h-.04Zm0,0v.1s.04-.1,.04-.1h-.04Z"/>
  <g>
    <path class="cls-2" d="M290.71,158.52h-39.72c-1.1,0-2.1-.68-2.51-1.7l-1.54-3.82-5.75,24.07c-.4,1.64-1.85,2.78-3.52,2.78h-.14c-1.73-.05-3.18-1.31-3.48-3.01l-7.19-41.75-4.3,19.96c-.37,1.68-1.85,2.88-3.56,2.88h-47.29c-1.09,0-2.07-.65-2.5-1.66l-1.64-3.91-2.02,9.29-3.67,16.9-1.81,8.3-.27,1.28c-.37,1.68-1.85,2.86-3.56,2.86-.46,0-.94-.07-1.99-.75-.9-.6-1.5-1.55-1.64-2.62l-.05-.45-1.08-8.15-2.26-17.37-2.13-16.3-1.25-9.56-1.79,9.49-3.08,16.36-.45,2.37c-.11,.63-.41,1.21-.89,1.61-.83,.71-1.75,1.02-2.62,1.02-1.53,0-2.9-.95-3.42-2.41l-.93-2.59-3.76-10.5-2.1,5.36c-.41,1.05-1.42,1.73-2.52,1.73h-40.2l-5.75,22.21c-.41,1.61-1.87,2.73-3.52,2.73-.34,0-.67-.04-1.01-.14-1.4-.4-2.4-1.65-2.6-3.08l-6.03-43.3-4.53,22.84c-.31,1.6-1.65,2.8-3.29,2.92-.1,.01-.19,.01-.3,.01-1.51,0-2.86-.94-3.4-2.39l-2.6-7.09-.78,2.14c-.53,1.43-1.9,2.39-3.42,2.39H9.44c-1.9,0-3.6-1.39-3.78-3.29-.2-2.17,1.49-4,3.63-4H44.33l2.14-5.82,1.19-3.22c.53-1.43,1.9-2.39,3.42-2.39s2.89,.95,3.41,2.39l1.55,4.21,6.19-31.31c.34-1.72,1.84-2.93,3.57-2.93h.1c1.79,.04,3.26,1.38,3.5,3.14l6.49,46.6,1.87-7.19c.41-1.61,1.85-2.73,3.52-2.73h39.89l3-7.68,1.73-4.42c.41-1.05,1.42-1.79,2.51-1.79,.15,0,.31,.01,.46,.04,.08,.01,.14,.01,.18,.01h.07c1.51,.03,2.86,.98,3.37,2.41l1.83,5.11,1.61,4.5,.8-4.3,4.75-25.19,1.45-7.68c.03-.15,.07-.3,.11-.44,.48-1.51,1.9-2.54,3.52-2.54,.01,0,.03,0,.05,.01,1.61,.04,2.97,1.13,3.4,2.65,.05,.16,.08,.34,.11,.52l1,7.65,3.33,25.43,2.14,16.36,.59,4.46,.97-4.46,3.64-16.76,1.16-5.35c.34-1.55,1.64-2.7,3.22-2.85,.11-.01,.22-.01,.31-.01,1.46,0,2.81,.86,3.38,2.24l2.02,4.81,2.9,6.93h41.3l7.65-35.45c.37-1.68,1.83-2.86,3.57-2.86h.05c1.75,.04,3.22,1.31,3.52,3.01l7.36,42.8,4.3-17.93c.37-1.54,1.69-2.67,3.27-2.78,.08-.01,.16-.01,.26-.01,1.47,0,2.82,.9,3.38,2.28l2.45,6.11,2.18,5.44h37.13c.91,0,1.79,.41,2.32,1.16,2.06,2.95,0,6.12-2.81,6.12Z"/>
    <path class="cls-1" d="M158.01,145.12v.1s.04-.1,.04-.1h-.04Z"/>
  </g>
</svg>