<?xml version="1.0" encoding="UTF-8"?>
<svg id="_图层_1" data-name="图层 1" xmlns="http://www.w3.org/2000/svg" xmlns:xlink="http://www.w3.org/1999/xlink" viewBox="0 0 300 300">
  <defs>
    <style>
      .cls-1 {
        fill: url(#_未命名的渐变_11);
      }

      .cls-2 {
        fill: url(#_未命名的渐变_26);
      }

      .cls-3 {
        fill: url(#_未命名的渐变_40);
        opacity: .5;
      }

      .cls-4 {
        fill: url(#_未命名的渐变_3);
      }

      .cls-5 {
        fill: url(#_未命名的渐变_2748);
      }

      .cls-6 {
        fill: url(#_未命名的渐变_1885);
      }
    </style>
    <radialGradient id="_未命名的渐变_2748" data-name="未命名的渐变 2748" cx="90.87" cy="74.12" fx="90.87" fy="74.12" r="259.39" gradientUnits="userSpaceOnUse">
      <stop offset=".18" stop-color="#00d0bf"/>
      <stop offset=".52" stop-color="#0090fa"/>
      <stop offset=".87" stop-color="#b236f0"/>
    </radialGradient>
    <linearGradient id="_未命名的渐变_40" data-name="未命名的渐变 40" x1="155.42" y1="299.15" x2="270.5" y2="161.14" gradientUnits="userSpaceOnUse">
      <stop offset="0" stop-color="#fff" stop-opacity=".8"/>
      <stop offset=".79" stop-color="#fff" stop-opacity="0"/>
    </linearGradient>
    <linearGradient id="_未命名的渐变_1885" data-name="未命名的渐变 1885" x1="150" y1="327.77" x2="150" y2="71.18" gradientUnits="userSpaceOnUse">
      <stop offset="0" stop-color="#421bde"/>
      <stop offset="1" stop-color="#121854"/>
    </linearGradient>
    <linearGradient id="_未命名的渐变_3" data-name="未命名的渐变 3" x1="94.49" y1="137.91" x2="31.98" y2="136.43" gradientUnits="userSpaceOnUse">
      <stop offset=".15" stop-color="#2ef2fc"/>
      <stop offset=".35" stop-color="#07c4fb"/>
      <stop offset=".65" stop-color="#07c4fb"/>
      <stop offset=".65" stop-color="#07c4fb"/>
      <stop offset=".67" stop-color="#0ac4fb" stop-opacity=".98"/>
      <stop offset=".69" stop-color="#16c7fb" stop-opacity=".94"/>
      <stop offset=".7" stop-color="#29ccfb" stop-opacity=".86"/>
      <stop offset=".72" stop-color="#45d2fc" stop-opacity=".75"/>
      <stop offset=".74" stop-color="#68dbfc" stop-opacity=".61"/>
      <stop offset=".76" stop-color="#93e5fd" stop-opacity=".43"/>
      <stop offset=".78" stop-color="#c5f1fe" stop-opacity=".23"/>
      <stop offset=".79" stop-color="#fff" stop-opacity="0"/>
    </linearGradient>
    <linearGradient id="_未命名的渐变_11" data-name="未命名的渐变 11" x1="198.55" y1="129.51" x2="270.14" y2="136.67" gradientUnits="userSpaceOnUse">
      <stop offset="0" stop-color="#20fdfb"/>
      <stop offset=".1" stop-color="#23f9fb"/>
      <stop offset=".19" stop-color="#2feffb"/>
      <stop offset=".28" stop-color="#43dffb"/>
      <stop offset=".37" stop-color="#5ec8fb"/>
      <stop offset=".44" stop-color="#7cb0fc"/>
      <stop offset=".48" stop-color="#7da6fc"/>
      <stop offset=".55" stop-color="#828dfc"/>
      <stop offset=".65" stop-color="#8a64fc"/>
      <stop offset=".71" stop-color="#9046fd"/>
      <stop offset=".81" stop-color="#9046fd" stop-opacity=".2"/>
    </linearGradient>
    <linearGradient id="_未命名的渐变_26" data-name="未命名的渐变 26" x1="39.05" y1="66.64" x2="218.3" y2="182.04" gradientUnits="userSpaceOnUse">
      <stop offset=".06" stop-color="#20fd70"/>
      <stop offset=".62" stop-color="#20fdfb"/>
      <stop offset=".88" stop-color="#a85dff"/>
    </linearGradient>
  </defs>
  <path class="cls-5" d="M148.55,299.2C69.02,255.37,28.7,207.36,28.7,156.5V44.52l9.46-2.26C71.52,34.24,101.64,24.49,148.64,.69l1.36-.69,1.36,.69c47,23.8,77.12,33.55,110.48,41.57l9.45,2.26v111.98c0,50.86-40.32,98.87-119.84,142.69l-1.46,.8-1.46-.8ZM53.37,156.5c0,39.09,32.51,77.83,96.64,115.17,64.12-37.34,96.63-76.08,96.63-115.17V63.9c-33.35-8.55-61.62-19.18-96.63-36.33-35.01,17.15-63.29,27.78-96.64,36.33v92.61Z"/>
  <path class="cls-3" d="M246.63,156.49c-.05,39.07-32.56,77.77-96.63,115.08v28.32l1.46-.8c79.46-43.79,119.78-91.77,119.84-142.6h-24.67Z"/>
  <path class="cls-6" d="M251.89,156.59c0,41.5-34.26,82.27-101.88,121.32-67.62-39.05-101.89-79.83-101.89-121.32V59.51c30.71-7.73,60.25-17.69,101.89-38.18,41.64,20.49,71.18,30.45,101.88,38.18v97.09Z"/>
  <path class="cls-4" d="M89.28,135.24c.18-.42,.42-.79,.75-1.1v17.28l-6.65,16.51c-.52,1.28-1.76,2.11-3.12,2.11-.1,0-.2,0-.31-.01-1.47-.14-2.7-1.23-2.99-2.7l-9.14-45.72-8.43,26.29c-.4,1.23-1.46,2.13-2.75,2.3-1.28,.18-2.55-.41-3.27-1.49l-5.86-8.96-3.15,4.9c-.63,.97-1.69,1.54-2.84,1.54h-9.27c-1.87,0-3.37-1.5-3.37-3.37s1.5-3.37,3.37-3.37h7.43l4.96-7.72c.63-.95,1.69-1.54,2.82-1.54h.01c1.13,0,2.2,.57,2.82,1.53l4.84,7.39,10.23-31.94c.46-1.46,1.87-2.43,3.4-2.35,1.53,.1,2.81,1.2,3.11,2.71l9.48,47.4,7.94-19.7Z"/>
  <path class="cls-1" d="M270.1,143.65c0,1.87-1.51,3.37-3.37,3.37h-10.54c-1.04,0-2.03-.48-2.67-1.32l-5.92-7.73-11.33,22.25c-.63,1.24-1.96,1.96-3.34,1.81-1.39-.14-2.55-1.13-2.9-2.47l-11.29-41.97-10,30.33c-.38,1.13-1.34,1.99-2.51,2.24-.03,.01-.07,.01-.1,.01v-15.9l9.72-29.48c.48-1.4,1.83-2.35,3.3-2.3,1.49,.04,2.77,1.05,3.16,2.5l11.93,44.37,9.78-19.2c.52-1.04,1.54-1.72,2.69-1.83,1.16-.11,2.29,.38,2.99,1.31l8.15,10.65h8.88c1.85,0,3.37,1.51,3.37,3.37Z"/>
  <path class="cls-2" d="M149.02,78.47c-23.67,0-48.82,7.03-48.82,20.06v77.81c0,13.03,25.15,20.06,48.82,20.06s48.82-7.03,48.82-20.06V98.53c0-13.03-25.15-20.06-48.82-20.06Zm0,6.87c25.61,0,41.95,7.81,41.95,13.19s-16.34,13.19-41.95,13.19-41.95-7.81-41.95-13.19,16.34-13.19,41.95-13.19Zm0,104.19c-25.61,0-41.95-7.81-41.95-13.19v-15.31c9.09,6.17,25.86,9.43,41.95,9.43s32.86-3.25,41.95-9.43v15.31c0,5.38-16.34,13.19-41.95,13.19Zm0-25.94c-25.61,0-41.95-7.81-41.95-13.19v-15.31c9.09,6.17,25.86,9.43,41.95,9.43s32.86-3.25,41.95-9.43v15.31c0,5.38-16.34,13.19-41.95,13.19Zm0-25.94c-25.61,0-41.95-7.81-41.95-13.19v-15.3c.1,.07,.2,.12,.3,.19,.39,.26,.79,.51,1.21,.76,.17,.1,.33,.2,.5,.3,.52,.3,1.05,.59,1.61,.87,.05,.03,.1,.05,.15,.08,.61,.3,1.24,.59,1.89,.88,.19,.08,.38,.16,.57,.24,.5,.21,1,.42,1.52,.62,.2,.08,.39,.15,.59,.23,.69,.26,1.4,.51,2.13,.75,.08,.03,.16,.05,.24,.07,.66,.22,1.34,.42,2.02,.62,.23,.07,.46,.13,.69,.2,.59,.17,1.19,.33,1.79,.48,.2,.05,.41,.11,.61,.16,.79,.2,1.6,.38,2.41,.56,.16,.03,.32,.07,.49,.1,.67,.14,1.35,.28,2.04,.41,.26,.05,.51,.1,.77,.14,.68,.12,1.36,.24,2.05,.35,.19,.03,.37,.06,.55,.09,.86,.13,1.73,.25,2.6,.37,.21,.03,.43,.05,.64,.08,.69,.08,1.37,.16,2.07,.24,.27,.03,.54,.06,.8,.08,.77,.07,1.54,.14,2.31,.2,.13,.01,.26,.02,.4,.03,.89,.07,1.79,.12,2.69,.17,.25,.01,.5,.02,.75,.03,.68,.03,1.37,.06,2.05,.08,.26,0,.53,.02,.79,.02,.9,.02,1.81,.03,2.71,.03s1.8-.01,2.71-.03c.26,0,.53-.01,.79-.02,.68-.02,1.37-.05,2.05-.08,.25-.01,.5-.02,.75-.03,.9-.05,1.79-.1,2.69-.17,.13,0,.26-.02,.4-.03,.77-.06,1.54-.13,2.31-.2,.27-.03,.54-.05,.8-.08,.69-.07,1.38-.15,2.07-.24,.21-.03,.43-.05,.64-.08,.87-.11,1.74-.23,2.6-.37,.19-.03,.37-.06,.55-.09,.69-.11,1.37-.22,2.05-.35,.26-.05,.51-.09,.77-.14,.69-.13,1.37-.27,2.04-.41,.16-.03,.32-.07,.49-.1,.82-.18,1.62-.36,2.41-.56,.21-.05,.41-.11,.61-.16,.61-.15,1.2-.32,1.79-.48,.23-.07,.46-.13,.69-.2,.69-.2,1.36-.41,2.02-.62,.08-.03,.16-.05,.24-.07,.73-.24,1.43-.49,2.13-.75,.2-.07,.4-.15,.59-.23,.52-.2,1.02-.4,1.52-.62,.19-.08,.39-.16,.57-.24,.65-.28,1.28-.58,1.89-.88,.05-.03,.1-.05,.15-.08,.56-.28,1.09-.57,1.61-.87,.17-.1,.34-.2,.5-.3,.42-.25,.82-.5,1.21-.76,.1-.06,.21-.12,.3-.19v15.3c0,5.38-16.34,13.19-41.95,13.19Z"/>
</svg>